{
 "cells": [
  {
   "cell_type": "markdown",
   "id": "bc71c82b",
   "metadata": {},
   "source": [
    "The Adventures of Tom Sawyer, Complete by Mark Twain\n",
    "\n",
    "Source https://www.gutenberg.org/ebooks/74\n",
    "\n",
    "Ref https://en.wikipedia.org/wiki/00"
   ]
  },
  {
   "cell_type": "code",
   "execution_count": null,
   "id": "8e0fc48f",
   "metadata": {},
   "outputs": [],
   "source": [
    "# Concept art\n",
    "\n",
    "Summary: \n",
    "\n",
    "Genre: \n",
    "\n",
    "Background: \n",
    "\n",
    "Main charactor:\n",
    "\n",
    "Prompt:\n",
    "Main charactor + Background + Summary\n",
    "--ar 3:2 --no text\n",
    "\n",
    "\n",
    "=== GPT4 ===\n",
    "As image prompt generator, write prompt to generate cover image of book 'The Adventures of Tom Sawyer, by Mark Twain' following steps below\n",
    "- Suggest 5 options of the cover images, wait for me to confirm\n",
    "- Suggest art style eg classic art, ultra-realistic, photorealism, cartoon, japanese anime, classic movie, classic photo, illustration, black and white and others as you see fit , wait for me to confirm\n",
    "- Suggest composition eg cinematic still, close up short, close up short, full body short, landscape and others as you see fit , wait for me to confirm\n",
    "- list keys elements of the image to explain scene / subject / action / setting, at least should include: era, main character, scene, evant detail, location, time of the day, atmosphere and others as you see fit\n",
    "- explain each element in detail according to choices above\n",
    "- Do not use charactors name, describe them by their visual instead\n",
    "- wait for feedback and confirm before continue to next step\n",
    "- generate prompt from explanations above start from art style, composition, era and all elements above in full detail with comma separated\n",
    "- end with ' use Midjourney v5,  --ar 16:9 --no text'"
   ]
  },
  {
   "cell_type": "code",
   "execution_count": null,
   "id": "0229b767",
   "metadata": {},
   "outputs": [],
   "source": [
    "# Youtube description\n",
    "\n",
    "Prompt: Write title, description, and keywords of youtube video of full audiobook of the classic book \"The Adventures of Tom Sawyer, by Mark Twain\"\n",
    "    \n",
    "Title: The Adventures of Tom Sawyer - Full Audiobook by Mark Twain\n",
    "\n",
    "Description: Dive into the exciting world of Tom Sawyer in this complete audiobook of Mark Twain's classic coming-of-age story. Follow the mischievous adventures of young Tom and his friends as they explore the Mississippi River, search for hidden treasure, and navigate the trials and tribulations of growing up in the 19th century. With humor, wit, and unforgettable characters, this timeless tale will captivate listeners of all ages. Enjoy the full audio experience of \"The Adventures of Tom Sawyer\" right here, and let your imagination run wild!\n",
    "\n",
    "0:00:00 Chapter 1\n",
    "0:15:21 Chaptor 2\n",
    "0:27:39 Chaptor 3\n",
    "0:40:54 Chaptor 4\n",
    "1:01:56 Chaptor 5\n",
    "1:13:38 Chaptor 6\n",
    "1:36:30 Chaptor 7\n",
    "1:48:19 Chaptor 8\n",
    "1:59:28 Chaptor 9\n",
    "2:13:12 Chaptor 10\n",
    "2:26:30 Chaptor 11\n",
    "2:35:32 Chaptor 12\n",
    "2:45:57 Chaptor 13\n",
    "3:00:57 Chaptor 14\n",
    "3:14:05 Chaptor 15\n",
    "3:24:41 Chaptor 16\n",
    "3:44:58 Chaptor 17\n",
    "3:52:37 Chaptor 18\n",
    "4:10:14 Chaptor 19\n",
    "4:14:48 Chaptor 20\n",
    "4:25:12 Chaptor 21\n",
    "4:39:02 Chaptor 22\n",
    "4:45:11 Chaptor 23\n",
    "4:57:34 Chaptor 24\n",
    "5:00:09 Chaptor 25\n",
    "5:13:24 Chaptor 26\n",
    "5:30:08 Chaptor 27\n",
    "5:36:12 Chaptor 28\n",
    "5:42:59 Chaptor 29\n",
    "5:58:47 Chaptor 30\n",
    "6:17:22 Chaptor 31\n",
    "6:35:51 Chaptor 32\n",
    "6:42:05 Chaptor 33\n",
    "7:02:46 Chaptor 34\n",
    "7:08:14 Chaptor 35\n",
    "        \n",
    "Credits\n",
    "Text: Project Gutenberg https://www.gutenberg.org/ebooks/74\n",
    "Voice: Google Cloud Text-to-Speech\n",
    "Produced by: The Classic Narrator 2023\n",
    "    \n",
    "Keywords: The Adventures of Tom Sawyer, Mark Twain, full audiobook, classic literature, coming-of-age story, American fiction, Mississippi River, 19th century, Huckleberry Finn, Becky Thatcher, treasure hunting, audiobook, audio book, Tom Sawyer audiobook, Mark Twain audiobook, classic book\n"
   ]
  },
  {
   "cell_type": "code",
   "execution_count": null,
   "id": "77a554fb",
   "metadata": {},
   "outputs": [],
   "source": [
    "# Voice test\n",
    "\n",
    "from TextToAudiobook import *\n",
    "test_tta = TextToAudiobook(\"test\")\n",
    "\n",
    "\n",
    "\n",
    "text = '''\n",
    "\n",
    "xxxx\n",
    "\n",
    "'''\n",
    "\n",
    "# Test voices\n",
    "voice = texttospeech.VoiceSelectionParams(\n",
    "    language_code=\"en-GB\",\n",
    "    name=\"en-GB-Neural2-A\",\n",
    ")\n",
    "\n",
    "voice = texttospeech.VoiceSelectionParams(\n",
    "    language_code=\"en-GB\",\n",
    "    name=\"en-GB-Standard-A\",\n",
    ")\n",
    "\n",
    "\n",
    "audio_config = texttospeech.AudioConfig(\n",
    "    audio_encoding=texttospeech.AudioEncoding.MP3,\n",
    "    speaking_rate=0.9\n",
    ")\n",
    "\n",
    "test_tta.synthesize_ssml(text, \"output.mp3\", voice, audio_config)\n",
    "# test_tta.synthesize_text(text, \"output.mp3\", voice, audio_config)\n",
    "\n"
   ]
  },
  {
   "cell_type": "code",
   "execution_count": 1,
   "id": "0326b8d9",
   "metadata": {},
   "outputs": [],
   "source": [
    "%load_ext autoreload\n",
    "%reload_ext autoreload\n",
    "%autoreload 2"
   ]
  },
  {
   "cell_type": "code",
   "execution_count": 2,
   "id": "c3793734",
   "metadata": {},
   "outputs": [],
   "source": [
    "# Text to script\n",
    "\n",
    "from TextToAudiobook import *\n",
    "\n",
    "folder_name = \"AdventuresofTomSawyer\"\n",
    "file_name = \"74-1.txt\"\n",
    "\n",
    "test_tta = TextToAudiobook(folder_name, char_limit_per_call=2000)"
   ]
  },
  {
   "cell_type": "code",
   "execution_count": 9,
   "id": "4b63cb09",
   "metadata": {},
   "outputs": [
    {
     "name": "stdout",
     "output_type": "stream",
     "text": [
      "Clean: 8474 lines\n",
      "./AdventuresofTomSawyer/project_file/clean/74-1.txt\n",
      "Tag: 8474 lines\n",
      "./AdventuresofTomSawyer/project_file/tag/74-1.txt\n",
      "Break: 8474 lines\n",
      "./AdventuresofTomSawyer/project_file/break/74-1.txt\n",
      "Split: 245 files\n",
      "./AdventuresofTomSawyer/project_file/split/74-1_txt/\n"
     ]
    }
   ],
   "source": [
    "#1 Clean raw file and copy to clean folder\n",
    "print(test_tta.clean_txt_raw(file_name))\n",
    "\n",
    "#2 Tag speech in clean file and copy to tag folder\n",
    "print(test_tta.tag_txt_clean(file_name))\n",
    "\n",
    "#3 Mark break point by chapter and characters limit\n",
    "print(test_tta.break_txt_tag(file_name))\n",
    "\n",
    "#4 Split into files by chapter and characters break\n",
    "print(test_tta.split_txt_break(file_name))"
   ]
  },
  {
   "cell_type": "code",
   "execution_count": 50,
   "id": "750cd4eb",
   "metadata": {},
   "outputs": [
    {
     "name": "stdout",
     "output_type": "stream",
     "text": [
      "Generate audio => ./AdventuresofTomSawyer/project_file/audio/74-1_txt/0035_003.mp3\n",
      "Generate audio => ./AdventuresofTomSawyer/project_file/audio/74-1_txt/0035_004.mp3\n",
      "Generate audio => ./AdventuresofTomSawyer/project_file/audio/74-1_txt/0035_005.mp3\n",
      "Generate audio => ./AdventuresofTomSawyer/project_file/audio/74-1_txt/0035_006.mp3\n",
      "Synthesize: 4 files\n",
      "./AdventuresofTomSawyer/project_file/audio/74-1_txt/\n"
     ]
    }
   ],
   "source": [
    "# Split into files by chapter and characters break\n",
    "voice = texttospeech.VoiceSelectionParams(\n",
    "    language_code=\"en-US\",\n",
    "    name=\"en-US-Neural2-G\",\n",
    ")\n",
    "\n",
    "audio_config = texttospeech.AudioConfig(\n",
    "    audio_encoding=texttospeech.AudioEncoding.MP3,\n",
    "    speaking_rate=0.9\n",
    ")\n",
    "print(test_tta.synthesize_txt_split(file_name, file_limit=100, voice=voice, audio_config=audio_config))\n"
   ]
  },
  {
   "cell_type": "code",
   "execution_count": 51,
   "id": "ab7994d6",
   "metadata": {},
   "outputs": [
    {
     "name": "stdout",
     "output_type": "stream",
     "text": [
      "Generate track list: ./AdventuresofTomSawyer/project_file/audio/74-1_txt/track_list.txt [total: 245 files]\n"
     ]
    },
    {
     "name": "stderr",
     "output_type": "stream",
     "text": [
      "ffmpeg version 5.1.2 Copyright (c) 2000-2022 the FFmpeg developers\n",
      "  built with Apple clang version 14.0.0 (clang-1400.0.29.102)\n",
      "  configuration: --prefix=/usr/local/Cellar/ffmpeg/5.1.2 --enable-shared --enable-pthreads --enable-version3 --cc=clang --host-cflags= --host-ldflags= --enable-ffplay --enable-gnutls --enable-gpl --enable-libaom --enable-libbluray --enable-libdav1d --enable-libmp3lame --enable-libopus --enable-librav1e --enable-librist --enable-librubberband --enable-libsnappy --enable-libsrt --enable-libtesseract --enable-libtheora --enable-libvidstab --enable-libvmaf --enable-libvorbis --enable-libvpx --enable-libwebp --enable-libx264 --enable-libx265 --enable-libxml2 --enable-libxvid --enable-lzma --enable-libfontconfig --enable-libfreetype --enable-frei0r --enable-libass --enable-libopencore-amrnb --enable-libopencore-amrwb --enable-libopenjpeg --enable-libspeex --enable-libsoxr --enable-libzmq --enable-libzimg --disable-libjack --disable-indev=jack --enable-videotoolbox\n",
      "  libavutil      57. 28.100 / 57. 28.100\n",
      "  libavcodec     59. 37.100 / 59. 37.100\n",
      "  libavformat    59. 27.100 / 59. 27.100\n",
      "  libavdevice    59.  7.100 / 59.  7.100\n",
      "  libavfilter     8. 44.100 /  8. 44.100\n",
      "  libswscale      6.  7.100 /  6.  7.100\n",
      "  libswresample   4.  7.100 /  4.  7.100\n",
      "  libpostproc    56.  6.100 / 56.  6.100\n",
      "[mp3 @ 0x7faf7d00c900] Estimating duration from bitrate, this may be inaccurate\n",
      "Input #0, concat, from './AdventuresofTomSawyer/project_file/audio/74-1_txt/track_list.txt':\n",
      "  Duration: N/A, start: 0.000000, bitrate: 32 kb/s\n",
      "  Stream #0:0: Audio: mp3, 24000 Hz, mono, fltp, 32 kb/s\n",
      "Output #0, mp3, to './AdventuresofTomSawyer/project_file/audio/74-1_txt.mp3':\n",
      "  Metadata:\n",
      "    TSSE            : Lavf59.27.100\n",
      "  Stream #0:0: Audio: mp3, 24000 Hz, mono, fltp, 32 kb/s\n",
      "Stream mapping:\n",
      "  Stream #0:0 -> #0:0 (copy)\n",
      "Press [q] to stop, [?] for help\n",
      "[mp3 @ 0x7faf7c705200] Estimating duration from bitrate, this may be inaccurate\n",
      "[mp3 @ 0x7faf7d00c800] Estimating duration from bitrate, this may be inaccurate\n",
      "    Last message repeated 1 times\n",
      "[mp3 @ 0x7faf7d204080] Estimating duration from bitrate, this may be inaccurate\n",
      "[mp3 @ 0x7faf7d00c800] Estimating duration from bitrate, this may be inaccurate\n",
      "    Last message repeated 1 times\n",
      "[mp3 @ 0x7faf7d107ec0] Estimating duration from bitrate, this may be inaccurate\n",
      "[mp3 @ 0x7faf7d00c800] Estimating duration from bitrate, this may be inaccurate\n",
      "[mp3 @ 0x7faf7d107ec0] Estimating duration from bitrate, this may be inaccurate\n",
      "[mp3 @ 0x7faf7d00c800] Estimating duration from bitrate, this may be inaccurate\n",
      "[mp3 @ 0x7faf7d207f00] Estimating duration from bitrate, this may be inaccurate\n",
      "[mp3 @ 0x7faf7d2045c0] Estimating duration from bitrate, this may be inaccurate\n",
      "[mp3 @ 0x7faf7d108140] Estimating duration from bitrate, this may be inaccurate\n",
      "[mp3 @ 0x7faf7d2040c0] Estimating duration from bitrate, this may be inaccurate\n",
      "[mp3 @ 0x7faf7d207f00] Estimating duration from bitrate, this may be inaccurate\n",
      "[mp3 @ 0x7faf7d2041c0] Estimating duration from bitrate, this may be inaccurate\n",
      "[mp3 @ 0x7faf7d204080] Estimating duration from bitrate, this may be inaccurate\n",
      "[mp3 @ 0x7faf7d00c800] Estimating duration from bitrate, this may be inaccurate\n",
      "[mp3 @ 0x7faf7d207f00] Estimating duration from bitrate, this may be inaccurate\n",
      "[mp3 @ 0x7faf7d00c800] Estimating duration from bitrate, this may be inaccurate\n",
      "[mp3 @ 0x7faf7d207f00] Estimating duration from bitrate, this may be inaccurate\n",
      "[mp3 @ 0x7faf7d2041c0] Estimating duration from bitrate, this may be inaccurate\n",
      "[mp3 @ 0x7faf7d207bc0] Estimating duration from bitrate, this may be inaccurate\n",
      "[mp3 @ 0x7faf7d204140] Estimating duration from bitrate, this may be inaccurate\n",
      "[mp3 @ 0x7faf7d207b80] Estimating duration from bitrate, this may be inaccurate\n",
      "[mp3 @ 0x7faf7d204140] Estimating duration from bitrate, this may be inaccurate\n",
      "[mp3 @ 0x7faf7d00c9c0] Estimating duration from bitrate, this may be inaccurate\n",
      "[mp3 @ 0x7faf7c705200] Estimating duration from bitrate, this may be inaccurate\n",
      "[mp3 @ 0x7faf7d2040c0] Estimating duration from bitrate, this may be inaccurate\n",
      "[mp3 @ 0x7faf7d204080] Estimating duration from bitrate, this may be inaccurate\n",
      "[mp3 @ 0x7faf7c705300] Estimating duration from bitrate, this may be inaccurate\n",
      "[mp3 @ 0x7faf7d204080] Estimating duration from bitrate, this may be inaccurate\n",
      "[mp3 @ 0x7faf7d107ec0] Estimating duration from bitrate, this may be inaccurate\n",
      "    Last message repeated 1 times\n",
      "[mp3 @ 0x7faf7d00c800] Estimating duration from bitrate, this may be inaccurate\n",
      "[mp3 @ 0x7faf7d207640] Estimating duration from bitrate, this may be inaccurate\n",
      "[mp3 @ 0x7faf7c705200] Estimating duration from bitrate, this may be inaccurate\n",
      "[mp3 @ 0x7faf7d107ec0] Estimating duration from bitrate, this may be inaccurate\n",
      "[mp3 @ 0x7faf7c705240] Estimating duration from bitrate, this may be inaccurate\n",
      "[mp3 @ 0x7faf7d207640] Estimating duration from bitrate, this may be inaccurate\n",
      "[mp3 @ 0x7faf7d107ec0] Estimating duration from bitrate, this may be inaccurate\n",
      "    Last message repeated 1 times\n",
      "[mp3 @ 0x7faf7d204140] Estimating duration from bitrate, this may be inaccurate\n",
      "[mp3 @ 0x7faf7d204080] Estimating duration from bitrate, this may be inaccurate\n",
      "    Last message repeated 1 times\n",
      "[mp3 @ 0x7faf7d00c800] Estimating duration from bitrate, this may be inaccurate\n",
      "[mp3 @ 0x7faf7d107f00] Estimating duration from bitrate, this may be inaccurate\n",
      "[mp3 @ 0x7faf7d2040c0] Estimating duration from bitrate, this may be inaccurate\n",
      "[mp3 @ 0x7faf7d204080] Estimating duration from bitrate, this may be inaccurate\n",
      "[mp3 @ 0x7faf7c705200] Estimating duration from bitrate, this may be inaccurate\n",
      "[mp3 @ 0x7faf7d00c800] Estimating duration from bitrate, this may be inaccurate\n",
      "    Last message repeated 1 times\n",
      "[mp3 @ 0x7faf7d204100] Estimating duration from bitrate, this may be inaccurate\n",
      "[mp3 @ 0x7faf7d204080] Estimating duration from bitrate, this may be inaccurate\n",
      "[mp3 @ 0x7faf7d207f00] Estimating duration from bitrate, this may be inaccurate\n",
      "[mp3 @ 0x7faf7d00c800] Estimating duration from bitrate, this may be inaccurate\n",
      "    Last message repeated 1 times\n",
      "[mp3 @ 0x7faf7d107ec0] Estimating duration from bitrate, this may be inaccurate\n",
      "[mp3 @ 0x7faf7c705340] Estimating duration from bitrate, this may be inaccurate\n",
      "[mp3 @ 0x7faf7d107ec0] Estimating duration from bitrate, this may be inaccurate\n",
      "[mp3 @ 0x7faf7d207f00] Estimating duration from bitrate, this may be inaccurate\n",
      "[mp3 @ 0x7faf7d204180] Estimating duration from bitrate, this may be inaccurate\n",
      "[mp3 @ 0x7faf7d00c800] Estimating duration from bitrate, this may be inaccurate\n",
      "[mp3 @ 0x7faf7d207f00] Estimating duration from bitrate, this may be inaccurate\n",
      "[mp3 @ 0x7faf7d00c800] Estimating duration from bitrate, this may be inaccurate\n",
      "[mp3 @ 0x7faf7c705200] Estimating duration from bitrate, this may be inaccurate\n",
      "[mp3 @ 0x7faf7d107ec0] Estimating duration from bitrate, this may be inaccurate\n",
      "[mp3 @ 0x7faf7d2041c0] Estimating duration from bitrate, this may be inaccurate\n",
      "[mp3 @ 0x7faf7d204180] Estimating duration from bitrate, this may be inaccurate\n",
      "[mp3 @ 0x7faf7d00c800] Estimating duration from bitrate, this may be inaccurate\n",
      "[mp3 @ 0x7faf7d107ec0] Estimating duration from bitrate, this may be inaccurate\n",
      "[mp3 @ 0x7faf7d00c800] Estimating duration from bitrate, this may be inaccurate\n",
      "[mp3 @ 0x7faf7d207640] Estimating duration from bitrate, this may be inaccurate\n",
      "[mp3 @ 0x7faf7c705480] Estimating duration from bitrate, this may be inaccurate\n",
      "[mp3 @ 0x7faf7d107ec0] Estimating duration from bitrate, this may be inaccurate\n",
      "[mp3 @ 0x7faf7d00c800] Estimating duration from bitrate, this may be inaccurate\n",
      "[mp3 @ 0x7faf7d204080] Estimating duration from bitrate, this may be inaccurate\n",
      "[mp3 @ 0x7faf7d107ec0] Estimating duration from bitrate, this may be inaccurate\n",
      "    Last message repeated 1 times\n",
      "[mp3 @ 0x7faf7d207f00] Estimating duration from bitrate, this may be inaccurate\n",
      "    Last message repeated 1 times\n",
      "[mp3 @ 0x7faf7d2041c0] Estimating duration from bitrate, this may be inaccurate\n",
      "[mp3 @ 0x7faf7d107ec0] Estimating duration from bitrate, this may be inaccurate\n",
      "[mp3 @ 0x7faf7d404e00] Estimating duration from bitrate, this may be inaccurate\n",
      "[mp3 @ 0x7faf7d107ec0] Estimating duration from bitrate, this may be inaccurate\n",
      "[mp3 @ 0x7faf7c705200] Estimating duration from bitrate, this may be inaccurate\n",
      "[mp3 @ 0x7faf7d2083c0] Estimating duration from bitrate, this may be inaccurate\n",
      "[mp3 @ 0x7faf7c705200] Estimating duration from bitrate, this may be inaccurate\n",
      "[mp3 @ 0x7faf7d2040c0] Estimating duration from bitrate, this may be inaccurate\n",
      "[mp3 @ 0x7faf7d208a00] Estimating duration from bitrate, this may be inaccurate\n",
      "[mp3 @ 0x7faf7d107ec0] Estimating duration from bitrate, this may be inaccurate\n",
      "[mp3 @ 0x7faf7c705200] Estimating duration from bitrate, this may be inaccurate\n",
      "[mp3 @ 0x7faf7d404080] Estimating duration from bitrate, this may be inaccurate\n",
      "[mp3 @ 0x7faf7d204100] Estimating duration from bitrate, this may be inaccurate\n"
     ]
    },
    {
     "name": "stderr",
     "output_type": "stream",
     "text": [
      "[mp3 @ 0x7faf7d00c800] Estimating duration from bitrate, this may be inaccurate\n",
      "[mp3 @ 0x7faf7c705200] Estimating duration from bitrate, this may be inaccurate\n",
      "[mp3 @ 0x7faf7d107ec0] Estimating duration from bitrate, this may be inaccurate\n",
      "[mp3 @ 0x7faf7d204100] Estimating duration from bitrate, this may be inaccurate\n",
      "[mp3 @ 0x7faf7c705200] Estimating duration from bitrate, this may be inaccurate\n",
      "[mp3 @ 0x7faf7d204080] Estimating duration from bitrate, this may be inaccurate\n",
      "    Last message repeated 1 times\n",
      "[mp3 @ 0x7faf7d207bc0] Estimating duration from bitrate, this may be inaccurate\n",
      "[mp3 @ 0x7faf7c705200] Estimating duration from bitrate, this may be inaccurate\n",
      "[mp3 @ 0x7faf7d204180] Estimating duration from bitrate, this may be inaccurate\n",
      "[mp3 @ 0x7faf7c705200] Estimating duration from bitrate, this may be inaccurate\n",
      "[mp3 @ 0x7faf7d204080] Estimating duration from bitrate, this may be inaccurate\n",
      "[mp3 @ 0x7faf7d107ec0] Estimating duration from bitrate, this may be inaccurate\n",
      "[mp3 @ 0x7faf7c705200] Estimating duration from bitrate, this may be inaccurate\n",
      "[mp3 @ 0x7faf7d00c9c0] Estimating duration from bitrate, this may be inaccurate\n",
      "[mp3 @ 0x7faf7c705300] Estimating duration from bitrate, this may be inaccurate\n",
      "[mp3 @ 0x7faf7d00c800] Estimating duration from bitrate, this may be inaccurate\n",
      "[mp3 @ 0x7faf7d107ec0] Estimating duration from bitrate, this may be inaccurate\n",
      "[mp3 @ 0x7faf7d00c800] Estimating duration from bitrate, this may be inaccurate\n",
      "    Last message repeated 1 times\n",
      "[mp3 @ 0x7faf7d207c00] Estimating duration from bitrate, this may be inaccurate\n",
      "[mp3 @ 0x7faf7d207bc0] Estimating duration from bitrate, this may be inaccurate\n",
      "[mp3 @ 0x7faf7d107ec0] Estimating duration from bitrate, this may be inaccurate\n",
      "[mp3 @ 0x7faf7d00c800] Estimating duration from bitrate, this may be inaccurate\n",
      "[mp3 @ 0x7faf7c705200] Estimating duration from bitrate, this may be inaccurate\n",
      "[mp3 @ 0x7faf7d107ec0] Estimating duration from bitrate, this may be inaccurate\n",
      "    Last message repeated 2 times\n",
      "[mp3 @ 0x7faf7d00ca00] Estimating duration from bitrate, this may be inaccurate\n",
      "[mp3 @ 0x7faf7d207f00] Estimating duration from bitrate, this may be inaccurate\n",
      "[mp3 @ 0x7faf7c705200] Estimating duration from bitrate, this may be inaccurate\n",
      "[mp3 @ 0x7faf7d207bc0] Estimating duration from bitrate, this may be inaccurate\n",
      "[mp3 @ 0x7faf7c705200] Estimating duration from bitrate, this may be inaccurate\n",
      "[mp3 @ 0x7faf7c705e00] Estimating duration from bitrate, this may be inaccurate\n",
      "[mp3 @ 0x7faf7c705200] Estimating duration from bitrate, this may be inaccurate\n",
      "[mp3 @ 0x7faf7d404080] Estimating duration from bitrate, this may be inaccurate\n",
      "[mp3 @ 0x7faf7d00c800] Estimating duration from bitrate, this may be inaccurate\n",
      "[mp3 @ 0x7faf7d107ec0] Estimating duration from bitrate, this may be inaccurate\n",
      "[mp3 @ 0x7faf7d204140] Estimating duration from bitrate, this may be inaccurate\n",
      "[mp3 @ 0x7faf7d204080] Estimating duration from bitrate, this may be inaccurate\n",
      "[mp3 @ 0x7faf7d107ec0] Estimating duration from bitrate, this may be inaccurate\n",
      "    Last message repeated 2 times\n",
      "[mp3 @ 0x7faf7d504180] Estimating duration from bitrate, this may be inaccurate\n",
      "[mp3 @ 0x7faf7d107ec0] Estimating duration from bitrate, this may be inaccurate\n",
      "    Last message repeated 1 times\n",
      "[mp3 @ 0x7faf7d00c800] Estimating duration from bitrate, this may be inaccurate\n",
      "[mp3 @ 0x7faf7d107ec0] Estimating duration from bitrate, this may be inaccurate\n",
      "    Last message repeated 1 times\n",
      "[mp3 @ 0x7faf7d404080] Estimating duration from bitrate, this may be inaccurate\n",
      "[mp3 @ 0x7faf7d204140] Estimating duration from bitrate, this may be inaccurate\n",
      "[mp3 @ 0x7faf7d00c9c0] Estimating duration from bitrate, this may be inaccurate\n",
      "[mp3 @ 0x7faf7d204080] Estimating duration from bitrate, this may be inaccurate\n",
      "[mp3 @ 0x7faf7d107f00] Estimating duration from bitrate, this may be inaccurate\n",
      "[mp3 @ 0x7faf7d00c800] Estimating duration from bitrate, this may be inaccurate\n",
      "[mp3 @ 0x7faf7d207680] Estimating duration from bitrate, this may be inaccurate\n",
      "[mp3 @ 0x7faf7d107ec0] Estimating duration from bitrate, this may be inaccurate\n",
      "[mp3 @ 0x7faf7d208000] Estimating duration from bitrate, this may be inaccurate\n",
      "[mp3 @ 0x7faf7d00c800] Estimating duration from bitrate, this may be inaccurate\n",
      "[mp3 @ 0x7faf7c705200] Estimating duration from bitrate, this may be inaccurate\n",
      "[mp3 @ 0x7faf7d00c880] Estimating duration from bitrate, this may be inaccurate\n",
      "[mp3 @ 0x7faf7d107ec0] Estimating duration from bitrate, this may be inaccurate\n",
      "[mp3 @ 0x7faf7d207680] Estimating duration from bitrate, this may be inaccurate\n",
      "[mp3 @ 0x7faf7d207640] Estimating duration from bitrate, this may be inaccurate\n",
      "[mp3 @ 0x7faf7d00c800] Estimating duration from bitrate, this may be inaccurate\n",
      "[mp3 @ 0x7faf7c705200] Estimating duration from bitrate, this may be inaccurate\n",
      "[mp3 @ 0x7faf7d207640] Estimating duration from bitrate, this may be inaccurate\n",
      "    Last message repeated 1 times\n",
      "[mp3 @ 0x7faf7d107ec0] Estimating duration from bitrate, this may be inaccurate\n",
      "[mp3 @ 0x7faf7c705200] Estimating duration from bitrate, this may be inaccurate\n",
      "[mp3 @ 0x7faf7d00c800] Estimating duration from bitrate, this may be inaccurate\n",
      "[mp3 @ 0x7faf7d207a80] Estimating duration from bitrate, this may be inaccurate\n",
      "[mp3 @ 0x7faf7c705200] Estimating duration from bitrate, this may be inaccurate\n",
      "[mp3 @ 0x7faf7d208000] Estimating duration from bitrate, this may be inaccurate\n",
      "[mp3 @ 0x7faf7c705200] Estimating duration from bitrate, this may be inaccurate\n",
      "[mp3 @ 0x7faf7d704080] Estimating duration from bitrate, this may be inaccurate\n",
      "[mp3 @ 0x7faf7d107ec0] Estimating duration from bitrate, this may be inaccurate\n",
      "[mp3 @ 0x7faf7c705200] Estimating duration from bitrate, this may be inaccurate\n",
      "[mp3 @ 0x7faf7d00c9c0] Estimating duration from bitrate, this may be inaccurate\n",
      "[mp3 @ 0x7faf7d107ec0] Estimating duration from bitrate, this may be inaccurate\n",
      "[mp3 @ 0x7faf7d00c800] Estimating duration from bitrate, this may be inaccurate\n",
      "[mp3 @ 0x7faf7d604180] Estimating duration from bitrate, this may be inaccurate\n",
      "[mp3 @ 0x7faf7d108140] Estimating duration from bitrate, this may be inaccurate\n",
      "[mp3 @ 0x7faf7c705200] Estimating duration from bitrate, this may be inaccurate\n",
      "    Last message repeated 2 times\n",
      "[mp3 @ 0x7faf7d207f00] Estimating duration from bitrate, this may be inaccurate\n",
      "[mp3 @ 0x7faf7d00c800] Estimating duration from bitrate, this may be inaccurate\n",
      "    Last message repeated 2 times\n",
      "[mp3 @ 0x7faf7c705240] Estimating duration from bitrate, this may be inaccurate\n",
      "[mp3 @ 0x7faf7d207640] Estimating duration from bitrate, this may be inaccurate\n",
      "[mp3 @ 0x7faf7d00c800] Estimating duration from bitrate, this may be inaccurate\n",
      "[mp3 @ 0x7faf7c705200] Estimating duration from bitrate, this may be inaccurate\n",
      "[mp3 @ 0x7faf7d704080] Estimating duration from bitrate, this may be inaccurate\n",
      "[mp3 @ 0x7faf7c705200] Estimating duration from bitrate, this may be inaccurate\n",
      "[mp3 @ 0x7faf7d207f00] Estimating duration from bitrate, this may be inaccurate\n",
      "[mp3 @ 0x7faf7d108000] Estimating duration from bitrate, this may be inaccurate\n",
      "[mp3 @ 0x7faf7d00c800] Estimating duration from bitrate, this may be inaccurate\n",
      "    Last message repeated 1 times\n",
      "[mp3 @ 0x7faf7c705200] Estimating duration from bitrate, this may be inaccurate\n",
      "[mp3 @ 0x7faf7d207640] Estimating duration from bitrate, this may be inaccurate\n",
      "[mp3 @ 0x7faf7d107ec0] Estimating duration from bitrate, this may be inaccurate\n",
      "[mp3 @ 0x7faf7d00c800] Estimating duration from bitrate, this may be inaccurate\n",
      "[mp3 @ 0x7faf7d107ec0] Estimating duration from bitrate, this may be inaccurate\n",
      "[mp3 @ 0x7faf7d00c800] Estimating duration from bitrate, this may be inaccurate\n",
      "[mp3 @ 0x7faf7c705200] Estimating duration from bitrate, this may be inaccurate\n",
      "[mp3 @ 0x7faf7c705540] Estimating duration from bitrate, this may be inaccurate\n",
      "[mp3 @ 0x7faf7d00c800] Estimating duration from bitrate, this may be inaccurate\n",
      "[mp3 @ 0x7faf7d107ec0] Estimating duration from bitrate, this may be inaccurate\n",
      "[mp3 @ 0x7faf7d7042c0] Estimating duration from bitrate, this may be inaccurate\n",
      "[mp3 @ 0x7faf7d2040c0] Estimating duration from bitrate, this may be inaccurate\n",
      "[mp3 @ 0x7faf7d00c800] Estimating duration from bitrate, this may be inaccurate\n",
      "    Last message repeated 1 times\n",
      "[mp3 @ 0x7faf7d107ec0] Estimating duration from bitrate, this may be inaccurate\n"
     ]
    },
    {
     "name": "stderr",
     "output_type": "stream",
     "text": [
      "[mp3 @ 0x7faf7d00c800] Estimating duration from bitrate, this may be inaccurate\n",
      "[mp3 @ 0x7faf7c705200] Estimating duration from bitrate, this may be inaccurate\n",
      "[mp3 @ 0x7faf7d207f00] Estimating duration from bitrate, this may be inaccurate\n",
      "[mp3 @ 0x7faf7d204140] Estimating duration from bitrate, this may be inaccurate\n",
      "[mp3 @ 0x7faf7d207bc0] Estimating duration from bitrate, this may be inaccurate\n",
      "[mp3 @ 0x7faf7d2041c0] Estimating duration from bitrate, this may be inaccurate\n",
      "[mp3 @ 0x7faf7d00c800] Estimating duration from bitrate, this may be inaccurate\n",
      "    Last message repeated 1 times\n",
      "[mp3 @ 0x7faf7d2040c0] Estimating duration from bitrate, this may be inaccurate\n",
      "[mp3 @ 0x7faf7d204080] Estimating duration from bitrate, this may be inaccurate\n",
      "[mp3 @ 0x7faf7d107ec0] Estimating duration from bitrate, this may be inaccurate\n",
      "[mp3 @ 0x7faf7d00c800] Estimating duration from bitrate, this may be inaccurate\n",
      "[mp3 @ 0x7faf7d204100] Estimating duration from bitrate, this may be inaccurate\n",
      "[mp3 @ 0x7faf7d204080] Estimating duration from bitrate, this may be inaccurate\n",
      "    Last message repeated 1 times\n",
      "[mp3 @ 0x7faf7d00c840] Estimating duration from bitrate, this may be inaccurate\n",
      "[mp3 @ 0x7faf7d204080] Estimating duration from bitrate, this may be inaccurate\n",
      "    Last message repeated 1 times\n",
      "[mp3 @ 0x7faf7c705200] Estimating duration from bitrate, this may be inaccurate\n",
      "[mp3 @ 0x7faf7c705540] Estimating duration from bitrate, this may be inaccurate\n",
      "[mp3 @ 0x7faf7c705200] Estimating duration from bitrate, this may be inaccurate\n",
      "[mp3 @ 0x7faf7d00c9c0] Estimating duration from bitrate, this may be inaccurate\n",
      "[mp3 @ 0x7faf7d107ec0] Estimating duration from bitrate, this may be inaccurate\n",
      "[mp3 @ 0x7faf7d2040c0] Estimating duration from bitrate, this may be inaccurate\n",
      "[mp3 @ 0x7faf7d00c900] Estimating duration from bitrate, this may be inaccurate\n",
      "[mp3 @ 0x7faf7d204080] Estimating duration from bitrate, this may be inaccurate\n"
     ]
    },
    {
     "name": "stdout",
     "output_type": "stream",
     "text": [
      "Generate full audio: ./AdventuresofTomSawyer/project_file/audio/74-1_txt.mp3\n",
      "./AdventuresofTomSawyer/project_file/audio/74-1_txt.mp3\n"
     ]
    },
    {
     "name": "stderr",
     "output_type": "stream",
     "text": [
      "    Last message repeated 3 times\n",
      "[mp3 @ 0x7faf7d00c800] Estimating duration from bitrate, this may be inaccurate\n",
      "    Last message repeated 1 times\n",
      "[mp3 @ 0x7faf7c705240] Estimating duration from bitrate, this may be inaccurate\n",
      "[mp3 @ 0x7faf7d204080] Estimating duration from bitrate, this may be inaccurate\n",
      "[mp3 @ 0x7faf7d107ec0] Estimating duration from bitrate, this may be inaccurate\n",
      "size=  102400kB time=07:17:23.83 bitrate=  32.0kbits/s speed=4.77e+03x    \r",
      "[mp3 @ 0x7faf7d204080] Estimating duration from bitrate, this may be inaccurate\n",
      "size=  103164kB time=07:20:09.93 bitrate=  32.0kbits/s speed=4.77e+03x    \n",
      "video:0kB audio:103164kB subtitle:0kB other streams:0kB global headers:0kB muxing overhead: 0.000224%\n"
     ]
    }
   ],
   "source": [
    "# Merge audio files => full length\n",
    "print(test_tta.merge_audio_files(file_name))"
   ]
  },
  {
   "cell_type": "code",
   "execution_count": 53,
   "id": "b382e4e1",
   "metadata": {},
   "outputs": [
    {
     "name": "stderr",
     "output_type": "stream",
     "text": [
      "ffmpeg version 5.1.2 Copyright (c) 2000-2022 the FFmpeg developers\n",
      "  built with Apple clang version 14.0.0 (clang-1400.0.29.102)\n",
      "  configuration: --prefix=/usr/local/Cellar/ffmpeg/5.1.2 --enable-shared --enable-pthreads --enable-version3 --cc=clang --host-cflags= --host-ldflags= --enable-ffplay --enable-gnutls --enable-gpl --enable-libaom --enable-libbluray --enable-libdav1d --enable-libmp3lame --enable-libopus --enable-librav1e --enable-librist --enable-librubberband --enable-libsnappy --enable-libsrt --enable-libtesseract --enable-libtheora --enable-libvidstab --enable-libvmaf --enable-libvorbis --enable-libvpx --enable-libwebp --enable-libx264 --enable-libx265 --enable-libxml2 --enable-libxvid --enable-lzma --enable-libfontconfig --enable-libfreetype --enable-frei0r --enable-libass --enable-libopencore-amrnb --enable-libopencore-amrwb --enable-libopenjpeg --enable-libspeex --enable-libsoxr --enable-libzmq --enable-libzimg --disable-libjack --disable-indev=jack --enable-videotoolbox\n",
      "  libavutil      57. 28.100 / 57. 28.100\n",
      "  libavcodec     59. 37.100 / 59. 37.100\n",
      "  libavformat    59. 27.100 / 59. 27.100\n",
      "  libavdevice    59.  7.100 / 59.  7.100\n",
      "  libavfilter     8. 44.100 /  8. 44.100\n",
      "  libswscale      6.  7.100 /  6.  7.100\n",
      "  libswresample   4.  7.100 /  4.  7.100\n",
      "  libpostproc    56.  6.100 / 56.  6.100\n",
      "Input #0, png_pipe, from './AdventuresofTomSawyer/project_file/image/74-1_txt.png':\n",
      "  Duration: N/A, bitrate: N/A\n",
      "  Stream #0:0: Video: png, rgba(pc), 1280x720 [SAR 2835:2835 DAR 16:9], 25 fps, 25 tbr, 25 tbn\n",
      "Input #1, mp3, from './AdventuresofTomSawyer/project_file/audio/74-1_txt.mp3':\n",
      "  Metadata:\n",
      "    encoder         : Lavf59.27.100\n",
      "  Duration: 07:20:09.94, start: 0.022042, bitrate: 32 kb/s\n",
      "  Stream #1:0: Audio: mp3, 24000 Hz, mono, fltp, 32 kb/s\n",
      "Stream mapping:\n",
      "  Stream #0:0 -> #0:0 (png (native) -> h264 (libx264))\n",
      "  Stream #1:0 -> #0:1 (mp3 (mp3float) -> aac (native))\n",
      "Press [q] to stop, [?] for help\n",
      "[libx264 @ 0x7fd09c80bc80] using SAR=1/1\n",
      "[libx264 @ 0x7fd09c80bc80] using cpu capabilities: MMX2 SSE2Fast SSSE3 SSE4.2 AVX FMA3 BMI2 AVX2\n",
      "[libx264 @ 0x7fd09c80bc80] profile High, level 3.1, 4:2:0, 8-bit\n",
      "[libx264 @ 0x7fd09c80bc80] 264 - core 164 r3095 baee400 - H.264/MPEG-4 AVC codec - Copyleft 2003-2022 - http://www.videolan.org/x264.html - options: cabac=1 ref=3 deblock=1:-3:-3 analyse=0x3:0x113 me=hex subme=7 psy=1 psy_rd=2.00:0.70 mixed_ref=1 me_range=16 chroma_me=1 trellis=1 8x8dct=1 cqm=0 deadzone=21,11 fast_pskip=1 chroma_qp_offset=-4 threads=12 lookahead_threads=2 sliced_threads=0 nr=0 decimate=1 interlaced=0 bluray_compat=0 constrained_intra=0 bframes=3 b_pyramid=2 b_adapt=1 b_bias=0 direct=1 weightb=1 open_gop=0 weightp=2 keyint=250 keyint_min=25 scenecut=40 intra_refresh=0 rc_lookahead=40 rc=crf mbtree=1 crf=23.0 qcomp=0.60 qpmin=0 qpmax=69 qpstep=4 ip_ratio=1.40 aq=1:1.20\n",
      "[aac @ 0x7fd09c80d180] Too many bits 8192.000000 > 6144 per frame requested, clamping to max\n",
      "Output #0, mp4, to './AdventuresofTomSawyer/project_file/video/74-1_txt.mp4':\n",
      "  Metadata:\n",
      "    encoder         : Lavf59.27.100\n",
      "  Stream #0:0: Video: h264 (avc1 / 0x31637661), yuv420p(tv, progressive), 1280x720 [SAR 1:1 DAR 16:9], q=2-31, 25 fps, 12800 tbn\n",
      "    Metadata:\n",
      "      encoder         : Lavc59.37.100 libx264\n",
      "    Side data:\n",
      "      cpb: bitrate max/min/avg: 0/0/0 buffer size: 0 vbv_delay: N/A\n",
      "  Stream #0:1: Audio: aac (LC) (mp4a / 0x6134706D), 24000 Hz, mono, fltp, 144 kb/s\n",
      "    Metadata:\n",
      "      encoder         : Lavc59.37.100 aac\n",
      "frame=660260 fps=105 q=28.0 size=  763136kB time=07:20:08.10 bitrate= 236.7kbits/s speed=4.21x    \r"
     ]
    },
    {
     "name": "stdout",
     "output_type": "stream",
     "text": [
      "Generate full video: ./AdventuresofTomSawyer/project_file/video/74-1_txt.mp4\n",
      "./AdventuresofTomSawyer/project_file/video/74-1_txt.mp4\n"
     ]
    },
    {
     "name": "stderr",
     "output_type": "stream",
     "text": [
      "frame=660305 fps=105 q=-1.0 Lsize=  779317kB time=07:20:12.08 bitrate= 241.7kbits/s speed=4.21x    \n",
      "video:478269kB audio:285098kB subtitle:0kB other streams:0kB global headers:0kB muxing overhead: 2.089419%\n",
      "[libx264 @ 0x7fd09c80bc80] frame I:2642  Avg QP:14.80  size:131984\n",
      "[libx264 @ 0x7fd09c80bc80] frame P:166397 Avg QP:14.82  size:   490\n",
      "[libx264 @ 0x7fd09c80bc80] frame B:491266 Avg QP:26.30  size:   121\n",
      "[libx264 @ 0x7fd09c80bc80] consecutive B-frames:  0.8%  0.0%  0.0% 99.2%\n",
      "[libx264 @ 0x7fd09c80bc80] mb I  I16..4:  1.1% 66.7% 32.2%\n",
      "[libx264 @ 0x7fd09c80bc80] mb P  I16..4:  0.0%  0.0%  0.0%  P16..4:  1.6%  0.2%  0.2%  0.0%  0.0%    skip:98.0%\n",
      "[libx264 @ 0x7fd09c80bc80] mb B  I16..4:  0.0%  0.0%  0.0%  B16..8:  3.0%  0.0%  0.0%  direct: 0.0%  skip:97.0%  L0:61.3% L1:38.6% BI: 0.1%\n",
      "[libx264 @ 0x7fd09c80bc80] 8x8 transform intra:66.7% inter:87.6%\n",
      "[libx264 @ 0x7fd09c80bc80] coded y,uvDC,uvAC intra: 99.1% 98.6% 95.6% inter: 0.3% 0.1% 0.0%\n",
      "[libx264 @ 0x7fd09c80bc80] i16 v,h,dc,p:  5%  4%  3% 89%\n",
      "[libx264 @ 0x7fd09c80bc80] i8 v,h,dc,ddl,ddr,vr,hd,vl,hu: 15% 28%  7%  6%  7%  7% 10%  8% 13%\n",
      "[libx264 @ 0x7fd09c80bc80] i4 v,h,dc,ddl,ddr,vr,hd,vl,hu: 14% 20%  5%  7% 11% 10% 12%  9% 12%\n",
      "[libx264 @ 0x7fd09c80bc80] i8c dc,h,v,p: 40% 32% 15% 12%\n",
      "[libx264 @ 0x7fd09c80bc80] Weighted P-Frames: Y:0.0% UV:0.0%\n",
      "[libx264 @ 0x7fd09c80bc80] ref P L0: 65.4%  0.4% 32.8%  1.4%\n",
      "[libx264 @ 0x7fd09c80bc80] ref B L0: 53.1% 46.7%  0.2%\n",
      "[libx264 @ 0x7fd09c80bc80] ref B L1: 96.0%  4.0%\n",
      "[libx264 @ 0x7fd09c80bc80] kb/s:148.34\n",
      "[aac @ 0x7fd09c80d180] Qavg: 65513.562\n"
     ]
    }
   ],
   "source": [
    "# Audio + Image => Video\n",
    "print(test_tta.merge_video_file(file_name))"
   ]
  },
  {
   "cell_type": "code",
   "execution_count": 52,
   "id": "004bc195",
   "metadata": {},
   "outputs": [
    {
     "name": "stdout",
     "output_type": "stream",
     "text": [
      "0:00:00 Chapter 1\n",
      "0:15:21 Chaptor 2\n",
      "0:27:39 Chaptor 3\n",
      "0:40:54 Chaptor 4\n",
      "1:01:56 Chaptor 5\n",
      "1:13:38 Chaptor 6\n",
      "1:36:30 Chaptor 7\n",
      "1:48:19 Chaptor 8\n",
      "1:59:28 Chaptor 9\n",
      "2:13:12 Chaptor 10\n",
      "2:26:30 Chaptor 11\n",
      "2:35:32 Chaptor 12\n",
      "2:45:57 Chaptor 13\n",
      "3:00:57 Chaptor 14\n",
      "3:14:05 Chaptor 15\n",
      "3:24:41 Chaptor 16\n",
      "3:44:58 Chaptor 17\n",
      "3:52:37 Chaptor 18\n",
      "4:10:14 Chaptor 19\n",
      "4:14:48 Chaptor 20\n",
      "4:25:12 Chaptor 21\n",
      "4:39:02 Chaptor 22\n",
      "4:45:11 Chaptor 23\n",
      "4:57:34 Chaptor 24\n",
      "5:00:09 Chaptor 25\n",
      "5:13:24 Chaptor 26\n",
      "5:30:08 Chaptor 27\n",
      "5:36:12 Chaptor 28\n",
      "5:42:59 Chaptor 29\n",
      "5:58:47 Chaptor 30\n",
      "6:17:22 Chaptor 31\n",
      "6:35:51 Chaptor 32\n",
      "6:42:05 Chaptor 33\n",
      "7:02:46 Chaptor 34\n",
      "7:08:14 Chaptor 35\n"
     ]
    }
   ],
   "source": [
    "print(test_tta.gen_youtube_chapter_marker(file_name))"
   ]
  },
  {
   "cell_type": "code",
   "execution_count": null,
   "id": "a692882a",
   "metadata": {},
   "outputs": [],
   "source": []
  }
 ],
 "metadata": {
  "kernelspec": {
   "display_name": "Python tts env",
   "language": "python",
   "name": "tts_env"
  },
  "language_info": {
   "codemirror_mode": {
    "name": "ipython",
    "version": 3
   },
   "file_extension": ".py",
   "mimetype": "text/x-python",
   "name": "python",
   "nbconvert_exporter": "python",
   "pygments_lexer": "ipython3",
   "version": "3.9.12"
  }
 },
 "nbformat": 4,
 "nbformat_minor": 5
}
